<?xml version="1.0" encoding="UTF-8" standalone="no"?><!DOCTYPE svg PUBLIC "-//W3C//DTD SVG 1.1//EN" "http://www.w3.org/Graphics/SVG/1.1/DTD/svg11.dtd"><svg width="100%" height="100%" viewBox="0 0 1067 1067" version="1.1" xmlns="http://www.w3.org/2000/svg" xmlns:xlink="http://www.w3.org/1999/xlink" xml:space="preserve" xmlns:serif="http://www.serif.com/" style="fill-rule:evenodd;clip-rule:evenodd;stroke-linejoin:round;stroke-miterlimit:2;"><path d="M515.402,771.546c1.531,-2.039 3.551,-4.939 4.927,-7.673c5.446,-10.822 10.653,-26.351 15.908,-45.07c26.13,-93.096 51.798,-260.807 90.945,-344.877c37.015,-79.492 98.082,-202.22 150.586,-267.247c14.578,-18.056 28.704,-31.831 41.485,-39.78c10.907,-6.783 21.294,-9.63 30.616,-8.904c9.711,0.757 19.733,5.91 29.198,15.846c10.627,11.156 21.194,29.048 31.096,51.322c35.68,80.262 65.097,220.138 77.813,277.756c1.735,7.86 -3.238,15.649 -11.097,17.384c-7.86,1.735 -15.649,-3.238 -17.384,-11.098c-12.459,-56.45 -41.027,-193.56 -75.984,-272.194c-6.994,-15.734 -14.167,-29.013 -21.607,-38.458c-4.934,-6.264 -9.194,-11.081 -14.301,-11.479c-5.466,-0.426 -11.24,3.006 -17.827,7.955c-9.249,6.949 -19.072,17.286 -29.315,29.972c-51.293,63.527 -110.677,183.579 -146.838,261.237c-44.337,95.217 -70.811,298.807 -100.96,376.421c-5.368,13.819 -11.115,24.119 -16.758,30.272c-6.529,7.12 -13.652,10.041 -20.503,10.041c-6.85,0 -13.973,-2.921 -20.502,-10.041c-5.643,-6.153 -11.39,-16.453 -16.758,-30.272c-30.149,-77.614 -56.623,-281.204 -100.96,-376.421c-36.161,-77.658 -95.546,-197.71 -146.838,-261.237c-10.243,-12.686 -20.067,-23.023 -29.316,-29.972c-6.586,-4.949 -12.36,-8.381 -17.826,-7.955c-5.116,0.399 -9.53,4.624 -14.362,10.294c-7.175,8.419 -14.02,20.312 -20.687,34.56c-33.734,72.084 -60.797,201.213 -76.815,277.145c-1.661,7.875 -9.404,12.92 -17.279,11.259c-7.875,-1.662 -12.921,-9.404 -11.259,-17.28c16.389,-77.694 44.419,-209.728 78.936,-283.487c9.685,-20.697 20.073,-37.043 30.629,-47.232c9.216,-8.895 18.935,-13.587 28.571,-14.338c9.322,-0.726 19.709,2.121 30.615,8.904c12.782,7.949 26.908,21.724 41.486,39.78c52.504,65.027 113.571,187.755 150.586,267.247c39.147,84.07 64.815,251.781 90.945,344.877c5.254,18.719 10.462,34.248 15.908,45.07c1.376,2.734 3.396,5.634 4.926,7.673Z"/></svg>