<?xml version="1.0" encoding="UTF-8" standalone="no"?><!DOCTYPE svg PUBLIC "-//W3C//DTD SVG 1.1//EN" "http://www.w3.org/Graphics/SVG/1.1/DTD/svg11.dtd"><svg width="100%" height="100%" viewBox="0 0 3955 1067" version="1.1" xmlns="http://www.w3.org/2000/svg" xmlns:xlink="http://www.w3.org/1999/xlink" xml:space="preserve" xmlns:serif="http://www.serif.com/" style="fill-rule:evenodd;clip-rule:evenodd;stroke-linejoin:round;stroke-miterlimit:2;"><g><text x="1823.25px" y="931.937px" style="font-family:'MarkerFelt-Thin', 'Marker Felt';font-size:600px;fill-opacity:0.79;">S<tspan x="2430.34px 2933.79px 3519.24px " y="931.937px 931.937px 931.937px ">oyl</tspan></text></g><path d="M1014.06,946.378c3.055,-7.201 6.033,-14.843 8.424,-22.167c37.889,-116.053 75.606,-324.943 132.367,-429.746c53.984,-99.673 143.273,-253.377 219.846,-334.914c43.591,-46.417 87.654,-69.285 120.318,-67.096c18.215,1.221 36.989,9.164 54.743,25.187c17.056,15.394 34.284,39.829 50.176,70.564c52.049,100.662 95.243,275.985 113.794,348.25c6.003,23.387 -8.11,47.25 -31.498,53.254c-23.388,6.004 -47.251,-8.11 -53.254,-31.498c-17.554,-68.378 -57.516,-234.568 -106.766,-329.818c-8.812,-17.042 -17.691,-31.548 -27.064,-41.778c-2.279,-2.488 -6.102,-5.525 -7.718,-6.756c-3.542,0.596 -7.042,3.572 -11.35,6.356c-11.888,7.679 -24.434,19.217 -37.599,33.235c-72.28,76.966 -155.73,222.599 -206.688,316.685c-63.33,116.932 -100.857,367.056 -143.921,462.37c-9.466,20.95 -19.947,36.256 -29.898,45.585c-14.04,13.163 -29.18,18.385 -43.912,18.385c-14.732,0 -29.872,-5.222 -43.912,-18.385c-9.95,-9.329 -20.432,-24.635 -29.897,-45.585c-43.065,-95.314 -80.592,-345.438 -143.922,-462.37c-50.958,-94.086 -134.408,-239.719 -206.688,-316.685c-13.165,-14.018 -25.711,-25.556 -37.599,-33.235c-4.636,-2.996 -8.337,-6.214 -12.159,-6.451c-0.821,0.492 -2.836,1.742 -3.988,2.699c-3.853,3.197 -7.548,7.361 -11.267,12.185c-12.859,16.679 -24.839,39.982 -36.352,66.806c-38.619,89.979 -69.553,216.973 -89.018,296.304c-5.754,23.451 -29.464,37.818 -52.915,32.064c-23.451,-5.754 -37.818,-29.464 -32.064,-52.915c23.956,-97.636 65.291,-263.419 115.743,-356.108c15.727,-28.894 32.854,-51.447 49.996,-65.671c17.133,-14.218 35.173,-21.473 53.087,-22.674c32.664,-2.189 76.727,20.679 120.318,67.096c76.574,81.537 165.862,235.241 219.846,334.914c56.761,104.803 94.478,313.693 132.367,429.746c2.391,7.324 5.369,14.966 8.424,22.167Z"/></svg>